<?xml version="1.0" encoding="UTF-8"?>
<svg width="120" height="40" viewBox="0 0 120 40" fill="none" xmlns="http://www.w3.org/2000/svg">
  <!-- Saneea Logo with event theme -->
  <!-- D -->
  <path d="M10 5H20C25.5 5 30 9.5 30 15V25C30 30.5 25.5 35 20 35H10V5Z" fill="#1E1E56"/>
  <path d="M15 12H20C22.2 12 24 13.8 24 16V24C24 26.2 22.2 28 20 28H15V12Z" fill="white"/>
  
  <!-- A -->
  <path d="M35 35L42.5 5H47.5L55 35H49L48 30H42L41 35H35Z" fill="#1E1E56"/>
  <path d="M43.5 25H46.5L45 17L43.5 25Z" fill="white"/>
  
  <!-- O -->
  <circle cx="65" cy="20" r="15" fill="#1E1E56"/>
  <circle cx="65" cy="20" r="8" fill="white"/>
  
  <!-- O -->
  <circle cx="90" cy="20" r="15" fill="#1E1E56"/>
  <circle cx="90" cy="20" r="8" fill="white"/>
  
  <!-- B -->
  <path d="M105 5H115C117.8 5 120 7.2 120 10V15C120 17.8 117.8 20 115 20C117.8 20 120 22.2 120 25V30C120 32.8 117.8 35 115 35H105V5Z" fill="#1E1E56"/>
  <path d="M111 12H115C116.1 12 117 12.9 117 14V16C117 17.1 116.1 18 115 18H111V12Z" fill="white"/>
  <path d="M111 22H115C116.1 22 117 22.9 117 24V26C117 27.1 116.1 28 115 28H111V22Z" fill="white"/>
  
  <!-- Event decoration -->
  <circle cx="35" cy="5" r="2" fill="#FF5757" opacity="0.7">
    <animate attributeName="opacity" values="0.7;1;0.7" dur="2s" repeatCount="indefinite" />
  </circle>
  <circle cx="100" cy="5" r="2" fill="#FFD700" opacity="0.7">
    <animate attributeName="opacity" values="0.7;1;0.7" dur="2.5s" repeatCount="indefinite" />
  </circle>
  <circle cx="75" cy="5" r="2" fill="#4CAF50" opacity="0.7">
    <animate attributeName="opacity" values="0.7;1;0.7" dur="1.8s" repeatCount="indefinite" />
  </circle>
</svg>