<?xml version="1.0" encoding="UTF-8"?>
<svg width="200" height="200" viewBox="0 0 200 200" fill="none" xmlns="http://www.w3.org/2000/svg">
  <!-- Saneea Logo based on the provided image -->
  <g transform="translate(10,30)">
    <!-- "D" with curved element -->
    <path d="M50 0 H70 C85 0 95 15 95 30 V45 C95 60 85 75 70 75 H50 Z" fill="#7986A3"/>
    <path d="M60 15 H70 C77 15 82 21 82 30 V45 C82 54 77 60 70 60 H60 Z" fill="white"/>
    
    <!-- Outer curve -->
    <path d="M65 0 Q95 0 95 30 Q95 60 65 75" stroke="#9993B6" fill="none" stroke-width="8"/>
    
    <!-- Saneea text - bottom part -->
    <g transform="translate(0,90)">
      <path d="M0 0 H15 C25 0 32 8 32 20 V30 C32 42 25 50 15 50 H0 V0 Z" fill="#7986A3"/>
      <path d="M45 0 L60 50 H75 L90 0 H75 L67.5 32.5 L60 0 Z" fill="#7986A3"/>
      <circle cx="105" cy="25" r="25" fill="#7986A3"/>
      <circle cx="105" cy="25" r="12" fill="white"/>
      <circle cx="145" cy="25" r="25" fill="#7986A3"/>
      <circle cx="145" cy="25" r="12" fill="white"/>
      <path d="M170 0 H185 C190 0 195 5 195 10 V15 C195 20 190 25 185 25 C190 25 195 30 195 35 V40 C195 45 190 50 185 50 H170 V0 Z" fill="#7986A3"/>
    </g>
  </g>
</svg>